<svg width="92" height="84" fill="none" xmlns="http://www.w3.org/2000/svg"><path d="M83.636 0H8.364C3.764 0 0 3.78 0 8.4v50.4c0 4.662 3.764 8.4 8.364 8.4h29.272v8.4h-8.363V84h33.454v-8.4h-8.363v-8.4h29.272c4.642 0 8.364-3.738 8.364-8.4V8.4C92 3.78 88.278 0 83.636 0Zm0 58.8H8.364V8.4h75.272v50.4ZM62.058 26.04l-4.224 4.242-8.656-8.526 4.224-4.284c.836-.882 2.258-.924 3.262 0l5.394 5.25c.878.882.92 2.31 0 3.318ZM29.273 41.622 46.71 24.024l8.656 8.736L37.971 50.4h-8.698v-8.778Z" fill="#1B2522"/></svg>