<svg width="102" height="115" fill="none" xmlns="http://www.w3.org/2000/svg"><path d="M51 0c-1.53 0-3.117.397-4.42 1.133L4.42 25.493A8.943 8.943 0 0 0 0 33.197v48.606c0 3.172 1.7 6.118 4.42 7.704l11.05 6.345c5.383 2.606 7.197 2.663 9.69 2.663 7.933 0 12.523-4.816 12.523-13.2V37.333c0-.68-.566-1.247-1.246-1.247h-5.27c-.737 0-1.304.567-1.304 1.247v47.982c0 3.74-3.853 7.422-10.03 4.306L8.217 82.993a1.478 1.478 0 0 1-.624-1.19V33.197c0-.51.227-.963.624-1.19l42.16-24.303c.34-.226.906-.226 1.246 0l42.16 24.303c.397.227.624.68.624 1.19v48.606c0 .453-.227.906-.624 1.19l-42.16 24.303c-.34.226-.906.226-1.303 0l-10.653-6.459c-.454-.17-.907-.226-1.19-.056-3.004 1.699-3.57 2.039-6.347 2.889-.68.227-1.757.623.397 1.813l14.053 8.327A8.624 8.624 0 0 0 51 115c1.587 0 3.06-.397 4.42-1.19l42.16-24.303a8.943 8.943 0 0 0 4.42-7.704V33.197c0-3.172-1.7-6.118-4.42-7.704L55.42 1.133C54.117.397 52.587 0 51 0Zm11.333 34.84c-12.013 0-19.21 5.042-19.21 13.54 0 9.12 7.14 11.783 18.7 12.916 13.77 1.36 14.847 3.399 14.847 6.118 0 4.702-3.797 6.684-12.637 6.684-11.22 0-13.6-2.775-14.45-8.327a1.278 1.278 0 0 0-1.246-1.02h-5.44c-.68 0-1.19.51-1.19 1.246 0 7.025 3.853 15.523 22.326 15.523C77.35 81.52 85 76.25 85 67.074c0-9.12-6.12-11.5-19.097-13.256-13.09-1.7-14.393-2.606-14.393-5.665 0-2.55 1.133-5.949 10.823-5.949 8.5 0 11.844 1.87 13.147 7.705.113.566.623.963 1.19.963h5.497c.283 0 .623-.113.85-.397.226-.226.396-.566.283-.906-.793-10.084-7.48-14.73-20.967-14.73Z" fill="#1B2522"/></svg>