<svg width="104" height="93" fill="none" xmlns="http://www.w3.org/2000/svg"><path d="M52 37.361c4.982 0 9.046 4.062 9.046 9.139 0 4.835-4.064 8.945-9.046 8.945-4.982 0-9.046-4.11-9.046-8.945 0-5.077 4.064-9.139 9.046-9.139Zm-22.396 47.82c3.047 1.838 9.723-.967 17.414-8.22a117.115 117.115 0 0 1-7.304-9.186c-3.967-.387-7.885-.967-11.61-1.74-2.467 10.346-1.548 17.454 1.5 19.146Zm3.434-27.753-1.403-2.466c-.532 1.402-1.064 2.804-1.402 4.158 1.306.29 2.757.532 4.256.773l-1.45-2.465Zm31.636-3.675 3.918-7.253-3.918-7.253c-1.452-2.562-3-4.835-4.402-7.108-2.612-.145-5.37-.145-8.272-.145s-5.66 0-8.272.145c-1.402 2.273-2.95 4.546-4.401 7.108L35.408 46.5l3.919 7.253c1.45 2.562 2.999 4.835 4.401 7.108 2.612.145 5.37.145 8.272.145s5.66 0 8.272-.145c1.402-2.273 2.95-4.546 4.402-7.108ZM52 21.26c-.92 1.064-1.886 2.176-2.854 3.482h5.708c-.968-1.306-1.935-2.418-2.854-3.482Zm0 50.48c.92-1.064 1.886-2.176 2.854-3.482h-5.708c.968 1.306 1.935 2.418 2.854 3.482ZM74.348 7.819c-3-1.838-9.674.967-17.366 8.22a117.155 117.155 0 0 1 7.305 9.186c3.966.387 7.884.967 11.609 1.74C78.363 16.62 77.444 9.512 74.348 7.82Zm-3.386 27.753 1.403 2.466c.532-1.402 1.064-2.804 1.402-4.158-1.306-.29-2.757-.532-4.256-.773l1.45 2.465Zm7.014-34.087c7.11 4.061 7.885 14.747 4.885 27.222C95.148 32.333 104 38.329 104 46.5s-8.852 14.167-21.139 17.793c3 12.475 2.225 23.16-4.885 27.222-7.063 4.062-16.689-.58-25.976-9.428-9.287 8.848-18.913 13.49-26.024 9.428-7.063-4.061-7.836-14.747-4.837-27.222C8.852 60.667 0 54.671 0 46.5s8.852-14.167 21.139-17.793c-3-12.475-2.226-23.16 4.837-27.222 7.11-4.062 16.737.58 26.024 9.428 9.287-8.848 18.913-13.49 25.976-9.428ZM76.573 46.5c1.645 3.626 3.096 7.253 4.305 10.928C91.036 54.38 96.744 50.03 96.744 46.5c0-3.53-5.708-7.881-15.866-10.928-1.21 3.675-2.66 7.302-4.305 10.928Zm-49.146 0c-1.645-3.626-3.096-7.253-4.305-10.928C12.964 38.62 7.256 42.97 7.256 46.5c0 3.53 5.708 7.881 15.866 10.928 1.21-3.675 2.66-7.302 4.305-10.928Zm43.535 10.928-1.451 2.465c1.5-.241 2.95-.483 4.256-.773-.338-1.354-.87-2.756-1.402-4.158l-1.403 2.465Zm-13.98 19.534c7.692 7.252 14.367 10.057 17.366 8.22 3.096-1.693 4.015-8.8 1.548-19.148-3.725.774-7.643 1.354-11.61 1.74a117.138 117.138 0 0 1-7.304 9.188Zm-23.944-41.39 1.451-2.465c-1.5.241-2.95.483-4.256.773.338 1.354.87 2.756 1.402 4.158l1.403-2.465Zm13.98-19.534C39.327 8.786 32.65 5.981 29.604 7.818c-3.048 1.693-3.967 8.8-1.5 19.148 3.725-.774 7.643-1.354 11.61-1.74a117.131 117.131 0 0 1 7.304-9.188Z" fill="#1B2522"/></svg>