<svg width="92" height="91" fill="none" xmlns="http://www.w3.org/2000/svg"><path d="M69.023 66.25V24.744L41.45 45.497 69.023 66.25ZM1.103 32.972a3.907 3.907 0 0 1-.092-5.257l5.514-5.074c.92-.823 3.171-1.189 4.825 0L27.067 34.57 63.508 1.43c1.47-1.463 3.998-2.057 6.893-.549l18.382 8.731C90.438 10.571 92 12.08 92 14.87v61.713c0 1.829-1.333 3.794-2.757 4.572l-20.22 9.6c-1.47.594-4.228.045-5.193-.915L26.975 56.47 11.35 68.353c-1.746 1.188-3.906.868-4.825 0l-5.514-5.029c-1.47-1.508-1.287-3.977.23-5.486l13.786-12.342" fill="#1B2522"/></svg>